# Blender v2.93.6 OBJ File: 'laubbaum2.blend'
# www.blender.org
mtllib laubbaum2.mtl
o path383
v 1.550027 2.255624 0.000000
v 1.540073 2.205722 0.000000
v 1.511187 2.133583 0.000000
v 1.464835 2.044263 0.000000
v 1.402485 1.942816 0.000000
v 1.325603 1.834298 0.000000
v 1.235655 1.723763 0.000000
v 1.134106 1.616266 0.000000
v 1.022425 1.516863 0.000000
v 0.902076 1.430609 0.000000
v 0.774528 1.362557 0.000000
v 0.641244 1.317765 0.000000
v 0.503693 1.301286 0.000000
v 0.390373 1.280180 0.000000
v 0.317017 1.222703 0.000000
v 0.277321 1.135758 0.000000
v 0.264985 1.026246 0.000000
v 0.273705 0.901070 0.000000
v 0.297178 0.767133 0.000000
v 0.329103 0.631337 0.000000
v 0.363176 0.500585 0.000000
v 0.393095 0.381778 0.000000
v 0.412558 0.281820 0.000000
v 0.415262 0.207613 0.000000
v 0.394905 0.166059 0.000000
v 0.332486 0.126786 0.000000
v 0.279255 0.099575 0.000000
v 0.232321 0.082777 0.000000
v 0.188792 0.074745 0.000000
v 0.145777 0.073830 0.000000
v 0.100384 0.078384 0.000000
v 0.049722 0.086760 0.000000
v -0.009101 0.097308 0.000000
v -0.078978 0.108382 0.000000
v -0.162797 0.118332 0.000000
v -0.263453 0.125510 0.000000
v -0.383836 0.128269 0.000000
v -0.426127 0.148146 0.000000
v -0.444545 0.203303 0.000000
v -0.445622 0.287027 0.000000
v -0.435887 0.392607 0.000000
v -0.421873 0.513332 0.000000
v -0.410109 0.642489 0.000000
v -0.407128 0.773367 0.000000
v -0.419459 0.899254 0.000000
v -0.453634 1.013438 0.000000
v -0.516184 1.109208 0.000000
v -0.613639 1.179851 0.000000
v -0.752531 1.218656 0.000000
v -0.912057 1.248726 0.000000
v -1.063287 1.295601 0.000000
v -1.205158 1.356808 0.000000
v -1.336607 1.429877 0.000000
v -1.456572 1.512335 0.000000
v -1.563990 1.601711 0.000000
v -1.657797 1.695533 0.000000
v -1.736932 1.791329 0.000000
v -1.800332 1.886628 0.000000
v -1.846933 1.978958 0.000000
v -1.875673 2.065847 0.000000
v -1.885489 2.144824 0.000000
v -1.872717 2.298728 0.000000
v -1.834836 2.460904 0.000000
v -1.772493 2.627224 0.000000
v -1.686336 2.793559 0.000000
v -1.577014 2.955784 0.000000
v -1.445175 3.109771 0.000000
v -1.291468 3.251391 0.000000
v -1.116541 3.376518 0.000000
v -0.921043 3.481024 0.000000
v -0.705621 3.560781 0.000000
v -0.470924 3.611662 0.000000
v -0.217601 3.629540 0.000000
v 0.037685 3.613842 0.000000
v 0.277807 3.568988 0.000000
v 0.501426 3.498336 0.000000
v 0.707198 3.405244 0.000000
v 0.893785 3.293070 0.000000
v 1.059844 3.165171 0.000000
v 1.204035 3.024906 0.000000
v 1.325016 2.875633 0.000000
v 1.421447 2.720711 0.000000
v 1.491987 2.563496 0.000000
v 1.535294 2.407348 0.000000
vt 0.333182 0.629646
vt 0.370320 0.631682
vt 0.351647 0.632840
vt 0.387942 0.626687
vt 0.316141 0.622231
vt 0.404409 0.618285
vt 0.300564 0.611134
vt 0.419617 0.606909
vt 0.286490 0.596892
vt 0.433461 0.592988
vt 0.273958 0.580044
vt 0.445835 0.576956
vt 0.263008 0.561129
vt 0.456637 0.559243
vt 0.253679 0.540683
vt 0.465761 0.540281
vt 0.246010 0.519245
vt 0.473104 0.520501
vt 0.240041 0.497353
vt 0.478560 0.500333
vt 0.235810 0.475546
vt 0.482025 0.480210
vt 0.233359 0.454361
vt 0.483396 0.460563
vt 0.232724 0.434336
vt 0.482635 0.452705
vt 0.480651 0.443257
vt 0.233576 0.424119
vt 0.477421 0.431526
vt 0.235823 0.412933
vt 0.473045 0.418173
vt 0.239383 0.401096
vt 0.467620 0.403857
vt 0.244174 0.388925
vt 0.461245 0.389240
vt 0.250114 0.376737
vt 0.454019 0.374982
vt 0.257123 0.364849
vt 0.446038 0.361742
vt 0.265117 0.353580
vt 0.437402 0.350182
vt 0.274015 0.343247
vt 0.428210 0.340963
vt 0.283735 0.334167
vt 0.418557 0.334742
vt 0.294195 0.326658
vt 0.399919 0.329979
vt 0.390570 0.326642
vt 0.304254 0.321321
vt 0.385747 0.319777
vt 0.314850 0.317975
vt 0.383176 0.309482
vt 0.324085 0.313574
vt 0.330594 0.305369
vt 0.382435 0.296561
vt 0.334807 0.294161
vt 0.383100 0.281820
vt 0.337152 0.280747
vt 0.384749 0.266065
vt 0.338057 0.265927
vt 0.337951 0.250499
vt 0.386960 0.250101
vt 0.337261 0.235264
vt 0.389310 0.234735
vt 0.336416 0.221020
vt 0.391376 0.220771
vt 0.335845 0.208565
vt 0.392736 0.209015
vt 0.335974 0.198700
vt 0.392967 0.200273
vt 0.391646 0.195351
vt 0.337234 0.192223
vt 0.387536 0.190646
vt 0.340051 0.189933
vt 0.347968 0.188824
vt 0.384045 0.187284
vt 0.354647 0.187626
vt 0.360235 0.186807
vt 0.364901 0.185796
vt 0.380968 0.185103
vt 0.368833 0.184800
vt 0.372217 0.184025
vt 0.378096 0.183970
vt 0.375242 0.183680
vn -0.0000 -0.0000 1.0000
usemtl Material.001
s off
f 72/1/1 74/2/1 73/3/1
f 72/1/1 75/4/1 74/2/1
f 71/5/1 75/4/1 72/1/1
f 71/5/1 76/6/1 75/4/1
f 70/7/1 76/6/1 71/5/1
f 70/7/1 77/8/1 76/6/1
f 69/9/1 77/8/1 70/7/1
f 69/9/1 78/10/1 77/8/1
f 68/11/1 78/10/1 69/9/1
f 68/11/1 79/12/1 78/10/1
f 67/13/1 79/12/1 68/11/1
f 67/13/1 80/14/1 79/12/1
f 66/15/1 80/14/1 67/13/1
f 66/15/1 81/16/1 80/14/1
f 65/17/1 81/16/1 66/15/1
f 65/17/1 82/18/1 81/16/1
f 64/19/1 82/18/1 65/17/1
f 64/19/1 83/20/1 82/18/1
f 63/21/1 83/20/1 64/19/1
f 63/21/1 84/22/1 83/20/1
f 62/23/1 84/22/1 63/21/1
f 62/23/1 1/24/1 84/22/1
f 61/25/1 1/24/1 62/23/1
f 61/25/1 2/26/1 1/24/1
f 61/25/1 3/27/1 2/26/1
f 60/28/1 3/27/1 61/25/1
f 60/28/1 4/29/1 3/27/1
f 59/30/1 4/29/1 60/28/1
f 59/30/1 5/31/1 4/29/1
f 58/32/1 5/31/1 59/30/1
f 58/32/1 6/33/1 5/31/1
f 57/34/1 6/33/1 58/32/1
f 57/34/1 7/35/1 6/33/1
f 56/36/1 7/35/1 57/34/1
f 56/36/1 8/37/1 7/35/1
f 55/38/1 8/37/1 56/36/1
f 55/38/1 9/39/1 8/37/1
f 54/40/1 9/39/1 55/38/1
f 54/40/1 10/41/1 9/39/1
f 53/42/1 10/41/1 54/40/1
f 53/42/1 11/43/1 10/41/1
f 52/44/1 11/43/1 53/42/1
f 52/44/1 12/45/1 11/43/1
f 51/46/1 12/45/1 52/44/1
f 51/46/1 13/47/1 12/45/1
f 51/46/1 14/48/1 13/47/1
f 50/49/1 14/48/1 51/46/1
f 50/49/1 15/50/1 14/48/1
f 49/51/1 15/50/1 50/49/1
f 49/51/1 16/52/1 15/50/1
f 48/53/1 16/52/1 49/51/1
f 47/54/1 16/52/1 48/53/1
f 47/54/1 17/55/1 16/52/1
f 46/56/1 17/55/1 47/54/1
f 46/56/1 18/57/1 17/55/1
f 45/58/1 18/57/1 46/56/1
f 45/58/1 19/59/1 18/57/1
f 44/60/1 19/59/1 45/58/1
f 43/61/1 19/59/1 44/60/1
f 43/61/1 20/62/1 19/59/1
f 42/63/1 20/62/1 43/61/1
f 42/63/1 21/64/1 20/62/1
f 41/65/1 21/64/1 42/63/1
f 41/65/1 22/66/1 21/64/1
f 40/67/1 22/66/1 41/65/1
f 40/67/1 23/68/1 22/66/1
f 39/69/1 23/68/1 40/67/1
f 39/69/1 24/70/1 23/68/1
f 39/69/1 25/71/1 24/70/1
f 38/72/1 25/71/1 39/69/1
f 38/72/1 26/73/1 25/71/1
f 37/74/1 26/73/1 38/72/1
f 36/75/1 26/73/1 37/74/1
f 36/75/1 27/76/1 26/73/1
f 35/77/1 27/76/1 36/75/1
f 34/78/1 27/76/1 35/77/1
f 33/79/1 27/76/1 34/78/1
f 33/79/1 28/80/1 27/76/1
f 32/81/1 28/80/1 33/79/1
f 31/82/1 28/80/1 32/81/1
f 31/82/1 29/83/1 28/80/1
f 30/84/1 29/83/1 31/82/1
