# Blender v2.93.6 OBJ File: 'laubbaum2.blend'
# www.blender.org
mtllib laubbaum2.mtl
o path383
v 1.550027 2.255624 0.000000
v 1.540073 2.205722 0.000000
v 1.511187 2.133583 0.000000
v 1.464835 2.044263 0.000000
v 1.402485 1.942816 0.000000
v 1.325603 1.834298 0.000000
v 1.235655 1.723763 0.000000
v 1.134106 1.616266 0.000000
v 1.022425 1.516863 0.000000
v 0.902076 1.430609 0.000000
v 0.774528 1.362557 0.000000
v 0.641244 1.317765 0.000000
v 0.503693 1.301286 0.000000
v 0.390373 1.280180 0.000000
v 0.317017 1.222703 0.000000
v 0.277321 1.135758 0.000000
v 0.264985 1.026246 0.000000
v 0.273705 0.901070 0.000000
v 0.297178 0.767133 0.000000
v 0.329103 0.631337 0.000000
v 0.363176 0.500585 0.000000
v 0.393095 0.381778 0.000000
v 0.412558 0.281820 0.000000
v 0.415262 0.207613 0.000000
v 0.394905 0.166059 0.000000
v 0.332486 0.126786 0.000000
v 0.279255 0.099575 0.000000
v 0.145777 0.073830 0.000000
v 0.231186 0.068203 0.000000
v 0.049722 0.086760 0.000000
v -0.009101 0.097308 0.000000
v -0.078978 0.108382 0.000000
v -0.162797 0.118332 0.000000
v -0.263453 0.125510 0.000000
v -0.383836 0.128269 0.000000
v -0.426127 0.148146 0.000000
v -0.444545 0.203303 0.000000
v -0.445622 0.287027 0.000000
v -0.435887 0.392607 0.000000
v -0.421873 0.513332 0.000000
v -0.410109 0.642489 0.000000
v -0.407128 0.773367 0.000000
v -0.419459 0.899254 0.000000
v -0.453634 1.013438 0.000000
v -0.516184 1.109208 0.000000
v -0.613639 1.179851 0.000000
v -0.752531 1.218656 0.000000
v -0.912057 1.248726 0.000000
v -1.063287 1.295601 0.000000
v -1.205158 1.356808 0.000000
v -1.336607 1.429877 0.000000
v -1.456572 1.512335 0.000000
v -1.563990 1.601711 0.000000
v -1.657797 1.695533 0.000000
v -1.736932 1.791329 0.000000
v -1.800332 1.886628 0.000000
v -1.846933 1.978958 0.000000
v -1.875673 2.065847 0.000000
v -1.885489 2.144824 0.000000
v -1.872717 2.298728 0.000000
v -1.834836 2.460904 0.000000
v -1.772493 2.627224 0.000000
v -1.686336 2.793559 0.000000
v -1.577014 2.955784 0.000000
v -1.445175 3.109771 0.000000
v -1.291468 3.251391 0.000000
v -1.116541 3.376518 0.000000
v -0.921043 3.481024 0.000000
v -0.705621 3.560781 0.000000
v -0.470924 3.611662 0.000000
v -0.217601 3.629540 0.000000
v 0.037685 3.613842 0.000000
v 0.277807 3.568988 0.000000
v 0.501426 3.498336 0.000000
v 0.707198 3.405244 0.000000
v 0.893785 3.293070 0.000000
v 1.059844 3.165171 0.000000
v 1.204035 3.024906 0.000000
v 1.325016 2.875633 0.000000
v 1.421447 2.720711 0.000000
v 1.491987 2.563496 0.000000
v 1.535294 2.407348 0.000000
v -0.470924 3.611662 0.300000
v -0.217601 3.629540 0.300000
v 0.037685 3.613842 0.300000
v 0.277807 3.568988 0.300000
v -0.705621 3.560781 0.300000
v 0.501426 3.498336 0.300000
v -0.921043 3.481024 0.300000
v 0.707198 3.405244 0.300000
v -1.116541 3.376518 0.300000
v 0.893785 3.293070 0.300000
v -1.291468 3.251391 0.300000
v 1.059844 3.165171 0.300000
v -1.445175 3.109771 0.300000
v 1.204035 3.024906 0.300000
v -1.577014 2.955784 0.300000
v 1.325016 2.875633 0.300000
v -1.686336 2.793559 0.300000
v 1.421447 2.720711 0.300000
v -1.772493 2.627224 0.300000
v 1.491987 2.563496 0.300000
v -1.834836 2.460904 0.300000
v 1.535294 2.407348 0.300000
v -1.872717 2.298728 0.300000
v 1.550027 2.255624 0.300000
v -1.885489 2.144824 0.300000
v 1.540073 2.205722 0.300000
v 1.511187 2.133583 0.300000
v -1.875673 2.065847 0.300000
v 1.464835 2.044263 0.300000
v -1.846933 1.978958 0.300000
v 1.402485 1.942816 0.300000
v -1.800332 1.886628 0.300000
v 1.325603 1.834298 0.300000
v -1.736932 1.791329 0.300000
v 1.235655 1.723763 0.300000
v -1.657797 1.695533 0.300000
v 1.134106 1.616266 0.300000
v -1.563990 1.601711 0.300000
v 1.022425 1.516863 0.300000
v -1.456572 1.512335 0.300000
v 0.902076 1.430609 0.300000
v -1.336607 1.429877 0.300000
v 0.774528 1.362557 0.300000
v -1.205158 1.356808 0.300000
v 0.641244 1.317765 0.300000
v -1.063287 1.295601 0.300000
v 0.503693 1.301286 0.300000
v 0.390373 1.280180 0.300000
v -0.912057 1.248726 0.300000
v 0.317017 1.222703 0.300000
v -0.752531 1.218656 0.300000
v 0.277321 1.135758 0.300000
v -0.613639 1.179851 0.300000
v -0.516184 1.109208 0.300000
v 0.264985 1.026246 0.300000
v -0.453634 1.013438 0.300000
v 0.273705 0.901070 0.300000
v -0.419459 0.899254 0.300000
v 0.297178 0.767133 0.300000
v -0.407128 0.773367 0.300000
v -0.410109 0.642489 0.300000
v 0.329103 0.631337 0.300000
v -0.421873 0.513332 0.300000
v 0.363176 0.500585 0.300000
v -0.435887 0.392607 0.300000
v 0.393095 0.381778 0.300000
v -0.445622 0.287027 0.300000
v 0.412558 0.281820 0.300000
v -0.444545 0.203303 0.300000
v 0.415262 0.207613 0.300000
v 0.394905 0.166059 0.300000
v -0.426127 0.148146 0.300000
v 0.332486 0.126786 0.300000
v -0.383836 0.128269 0.300000
v -0.263453 0.125510 0.300000
v 0.279255 0.099575 0.300000
v -0.162797 0.118332 0.300000
v -0.078978 0.108382 0.300000
v -0.009101 0.097308 0.300000
v 0.049722 0.086760 0.300000
v 0.231186 0.068203 0.300000
vt 0.436083 0.883080
vt 0.469508 0.887665
vt 0.503221 0.884374
vt 0.534958 0.874216
vt 0.564539 0.857979
vt 0.591783 0.836449
vt 0.616511 0.810410
vt 0.638543 0.780650
vt 0.657698 0.747954
vt 0.673798 0.713109
vt 0.686661 0.676899
vt 0.696109 0.640113
vt 0.701961 0.603534
vt 0.704037 0.567950
vt 0.702766 0.556223
vt 0.699015 0.539249
vt 0.692973 0.518217
vt 0.684830 0.494313
vt 0.674775 0.468728
vt 0.662997 0.442650
vt 0.649685 0.417266
vt 0.635028 0.393767
vt 0.619215 0.373339
vt 0.602437 0.357173
vt 0.584881 0.346456
vt 0.566737 0.342378
vt 0.551796 0.337251
vt 0.542163 0.323649
vt 0.536998 0.303184
vt 0.535464 0.277464
vt 0.536723 0.248101
vt 0.539938 0.216705
vt 0.544270 0.184885
vt 0.548880 0.154253
vt 0.552933 0.126417
vt 0.555588 0.102989
vt 0.556010 0.085578
vt 0.553358 0.075795
vt 0.545152 0.066482
vt 0.538149 0.060014
vt 0.531831 0.052578
vt 0.507860 0.056654
vt 0.500086 0.059039
vt 0.490852 0.061530
vt 0.479778 0.063737
vt 0.466485 0.065267
vt 0.450591 0.065729
vt 0.444991 0.070329
vt 0.442512 0.083245
vt 0.442297 0.102892
vt 0.443491 0.127684
vt 0.445237 0.156038
vt 0.446678 0.186366
vt 0.446958 0.217086
vt 0.445222 0.246610
vt 0.440612 0.273354
vt 0.432272 0.295733
vt 0.419346 0.312162
vt 0.400977 0.321055
vt 0.379892 0.327867
vt 0.359888 0.338636
vt 0.341107 0.352782
vt 0.323692 0.369727
vt 0.307784 0.388894
vt 0.293527 0.409704
vt 0.281063 0.431578
vt 0.270533 0.453938
vt 0.262082 0.476205
vt 0.255850 0.497802
vt 0.251981 0.518149
vt 0.250617 0.536668
vt 0.252170 0.572806
vt 0.257030 0.610924
vt 0.265116 0.650051
vt 0.276346 0.689220
vt 0.290637 0.727459
vt 0.307908 0.763799
vt 0.328076 0.797271
vt 0.351060 0.826905
vt 0.376777 0.851730
vt 0.405145 0.870779
vt 0.133094 0.660883
vt 0.114133 0.653413
vt 0.096742 0.641804
vt 0.080970 0.626651
vt 0.066871 0.608546
vt 0.054493 0.588085
vt 0.043888 0.565859
vt 0.035108 0.542464
vt 0.028202 0.518494
vt 0.023222 0.494541
vt 0.020219 0.471201
vt 0.019243 0.449066
vt 0.020066 0.437718
vt 0.022422 0.425245
vt 0.026225 0.412002
vt 0.031388 0.398343
vt 0.037823 0.384622
vt 0.045444 0.371196
vt 0.054164 0.358417
vt 0.063896 0.346641
vt 0.074553 0.336223
vt 0.086049 0.327517
vt 0.098296 0.320878
vt 0.111208 0.316660
vt 0.122455 0.311172
vt 0.130362 0.301080
vt 0.135456 0.287353
vt 0.138262 0.270959
vt 0.139306 0.252869
vt 0.139113 0.234051
vt 0.138210 0.215474
vt 0.137121 0.198109
vt 0.136373 0.182923
vt 0.136492 0.170887
vt 0.138001 0.162970
vt 0.141429 0.160140
vt 0.151165 0.159823
vt 0.159308 0.158857
vt 0.166090 0.157482
vt 0.171745 0.155936
vt 0.176506 0.154458
vt 0.191188 0.151910
vt 0.195063 0.156452
vt 0.199358 0.160399
vt 0.204391 0.166086
vt 0.206022 0.172074
vt 0.205776 0.182741
vt 0.204165 0.197099
vt 0.201701 0.214160
vt 0.198897 0.232935
vt 0.196265 0.252437
vt 0.194317 0.271678
vt 0.193566 0.289668
vt 0.194523 0.305421
vt 0.197701 0.317947
vt 0.203611 0.326258
vt 0.212768 0.329368
vt 0.223885 0.331827
vt 0.234647 0.338355
vt 0.244937 0.348222
vt 0.254637 0.360702
vt 0.263632 0.375067
vt 0.271804 0.390589
vt 0.279037 0.406539
vt 0.285214 0.422191
vt 0.290219 0.436817
vt 0.293934 0.449689
vt 0.296244 0.460079
vt 0.297030 0.467260
vt 0.295783 0.489063
vt 0.292222 0.511484
vt 0.286460 0.534040
vt 0.278604 0.556249
vt 0.268765 0.577630
vt 0.257052 0.597701
vt 0.243575 0.615979
vt 0.228445 0.631983
vt 0.211770 0.645231
vt 0.193659 0.655241
vt 0.174224 0.661532
vt 0.153574 0.663620
vt 0.251981 0.518149
vt 0.250617 0.536668
vt 0.436083 0.883080
vt 0.469508 0.887665
vt 0.531831 0.052578
vt 0.507860 0.056654
vt 0.536998 0.303184
vt 0.535464 0.277464
vt 0.699015 0.539249
vt 0.692973 0.518217
vt 0.503221 0.884374
vt 0.538149 0.060014
vt 0.440612 0.273354
vt 0.432272 0.295733
vt 0.255850 0.497802
vt 0.534958 0.874216
vt 0.536723 0.248101
vt 0.684830 0.494313
vt 0.405145 0.870779
vt 0.445222 0.246610
vt 0.262082 0.476205
vt 0.564539 0.857979
vt 0.539938 0.216705
vt 0.674775 0.468728
vt 0.376777 0.851730
vt 0.446958 0.217086
vt 0.270533 0.453938
vt 0.591783 0.836449
vt 0.446678 0.186366
vt 0.662997 0.442650
vt 0.351060 0.826905
vt 0.544270 0.184885
vt 0.281063 0.431578
vt 0.616511 0.810410
vt 0.445237 0.156038
vt 0.649685 0.417266
vt 0.328076 0.797271
vt 0.548880 0.154253
vt 0.293527 0.409704
vt 0.638543 0.780650
vt 0.443491 0.127684
vt 0.635028 0.393767
vt 0.307908 0.763799
vt 0.552933 0.126417
vt 0.307784 0.388894
vt 0.657698 0.747954
vt 0.442297 0.102892
vt 0.619215 0.373339
vt 0.290637 0.727459
vt 0.555588 0.102989
vt 0.323692 0.369727
vt 0.673798 0.713109
vt 0.442512 0.083245
vt 0.602437 0.357173
vt 0.276346 0.689220
vt 0.556010 0.085578
vt 0.341107 0.352782
vt 0.686661 0.676899
vt 0.553358 0.075795
vt 0.584881 0.346456
vt 0.265116 0.650051
vt 0.444991 0.070329
vt 0.359888 0.338636
vt 0.696109 0.640113
vt 0.545152 0.066482
vt 0.566737 0.342378
vt 0.257030 0.610924
vt 0.450591 0.065729
vt 0.551796 0.337251
vt 0.701961 0.603534
vt 0.466485 0.065267
vt 0.379892 0.327867
vt 0.252170 0.572806
vt 0.542163 0.323649
vt 0.704037 0.567950
vt 0.479778 0.063737
vt 0.400977 0.321055
vt 0.490852 0.061530
vt 0.702766 0.556223
vt 0.500086 0.059039
vt 0.419346 0.312162
vn -0.0000 0.0000 -1.0000
vn -0.0000 -0.0000 1.0000
vn -0.9924 -0.1233 0.0000
vn -0.0704 0.9975 0.0000
vn -0.1017 -0.9948 0.0000
vn 0.9937 -0.1119 0.0000
vn 0.8876 -0.4606 0.0000
vn 0.0614 0.9981 0.0000
vn 0.5465 -0.8374 0.0000
vn -0.8372 -0.5468 0.0000
vn -0.9494 -0.3140 0.0000
vn 0.1836 0.9830 0.0000
vn 0.9976 0.0695 0.0000
vn 0.8520 -0.5236 0.0000
vn -0.2119 0.9773 0.0000
vn -0.9580 -0.2867 0.0000
vn -0.8927 -0.4506 0.0000
vn 0.3013 0.9535 0.0000
vn 0.9850 0.1726 0.0000
vn 0.8160 -0.5781 0.0000
vn -0.3472 0.9378 0.0000
vn -0.9952 -0.0975 0.0000
vn -0.8326 -0.5539 0.0000
vn 0.4122 0.9111 0.0000
vn -0.9997 0.0228 0.0000
vn 0.7756 -0.6312 0.0000
vn -0.4714 0.8819 0.0000
vn 0.9735 0.2289 0.0000
vn -0.7710 -0.6369 0.0000
vn 0.5152 0.8570 0.0000
vn -0.9959 0.0907 0.0000
vn 0.7269 -0.6867 0.0000
vn -0.5818 0.8133 0.0000
vn 0.9677 0.2522 0.0000
vn -0.7072 -0.7071 0.0000
vn 0.6102 0.7923 0.0000
vn -0.9933 0.1153 0.0000
vn 0.6649 -0.7470 0.0000
vn -0.6776 0.7354 0.0000
vn 0.9697 0.2442 0.0000
vn -0.6396 -0.7687 0.0000
vn 0.6973 0.7168 0.0000
vn -0.9958 0.0918 0.0000
vn 0.5825 -0.8128 0.0000
vn -0.7596 0.6504 0.0000
vn 0.9816 0.1911 0.0000
vn -0.5664 -0.8241 0.0000
vn 0.7769 0.6296 0.0000
vn -0.9999 -0.0129 0.0000
vn 0.4707 -0.8823 0.0000
vn -0.8293 0.5588 0.0000
vn 0.9993 0.0364 0.0000
vn -0.4859 -0.8740 0.0000
vn 0.8490 0.5284 0.0000
vn 0.8980 -0.4399 0.0000
vn 0.3186 -0.9479 0.0000
vn -0.8880 0.4599 0.0000
vn -0.9485 -0.3167 0.0000
vn -0.3961 -0.9182 0.0000
vn 0.9124 0.4094 0.0000
vn 0.5325 -0.8464 0.0000
vn 0.1189 -0.9929 0.0000
vn -0.9364 0.3510 0.0000
vn -0.4254 -0.9050 0.0000
vn 0.1831 -0.9831 0.0000
vn 0.9636 0.2673 0.0000
vn -0.0229 -0.9997 0.0000
vn -0.2961 -0.9552 0.0000
vn -0.9738 0.2275 0.0000
vn 0.4552 -0.8904 0.0000
vn 0.6168 -0.7872 0.0000
vn 0.9953 0.0966 0.0000
vn -0.0711 -0.9975 0.0000
vn -0.1852 -0.9827 0.0000
vn -0.9966 0.0827 0.0000
vn -0.1179 -0.9930 0.0000
vn 0.9097 -0.4153 0.0000
vn 0.9807 -0.1956 0.0000
vn -0.1565 -0.9877 0.0000
vn -0.2691 -0.9631 0.0000
vn 0.9283 -0.3717 0.0000
vn -0.1765 -0.9843 0.0000
vn -0.5869 -0.8097 0.0000
usemtl Material.001
s off
f 70/1/1 71/2/1 72/3/1 73/4/1 74/5/1 75/6/1 76/7/1 77/8/1 78/9/1 79/10/1 80/11/1 81/12/1 82/13/1 1/14/1 2/15/1 3/16/1 4/17/1 5/18/1 6/19/1 7/20/1 8/21/1 9/22/1 10/23/1 11/24/1 12/25/1 13/26/1 14/27/1 15/28/1 16/29/1 17/30/1 18/31/1 19/32/1 20/33/1 21/34/1 22/35/1 23/36/1 24/37/1 25/38/1 26/39/1 27/40/1 29/41/1 30/42/1 31/43/1 32/44/1 33/45/1 34/46/1 35/47/1 36/48/1 37/49/1 38/50/1 39/51/1 40/52/1 41/53/1 42/54/1 43/55/1 44/56/1 45/57/1 46/58/1 47/59/1 48/60/1 49/61/1 50/62/1 51/63/1 52/64/1 53/65/1 54/66/1 55/67/1 56/68/1 57/69/1 58/70/1 59/71/1 60/72/1 61/73/1 62/74/1 63/75/1 64/76/1 65/77/1 66/78/1 67/79/1 68/80/1 69/81/1
f 83/82/2 87/83/2 89/84/2 91/85/2 93/86/2 95/87/2 97/88/2 99/89/2 101/90/2 103/91/2 105/92/2 107/93/2 110/94/2 112/95/2 114/96/2 116/97/2 118/98/2 120/99/2 122/100/2 124/101/2 126/102/2 128/103/2 131/104/2 133/105/2 135/106/2 136/107/2 138/108/2 140/109/2 142/110/2 143/111/2 145/112/2 147/113/2 149/114/2 151/115/2 154/116/2 156/117/2 157/118/2 159/119/2 160/120/2 161/121/2 162/122/2 163/123/2 158/124/2 155/125/2 153/126/2 152/127/2 150/128/2 148/129/2 146/130/2 144/131/2 141/132/2 139/133/2 137/134/2 134/135/2 132/136/2 130/137/2 129/138/2 127/139/2 125/140/2 123/141/2 121/142/2 119/143/2 117/144/2 115/145/2 113/146/2 111/147/2 109/148/2 108/149/2 106/150/2 104/151/2 102/152/2 100/153/2 98/154/2 96/155/2 94/156/2 92/157/2 90/158/2 88/159/2 86/160/2 85/161/2 84/162/2
f 59/71/3 58/70/3 110/163/3 107/164/3
f 71/2/4 70/1/4 83/165/4 84/166/4
f 30/42/5 29/41/5 163/167/5 162/168/5
f 17/30/6 16/29/6 134/169/6 137/170/6
f 4/17/7 3/16/7 109/171/7 111/172/7
f 72/3/8 71/2/8 84/166/8 85/173/8
f 29/41/9 27/40/9 158/174/9 163/167/9
f 45/57/10 44/56/10 138/175/10 136/176/10
f 58/70/11 57/69/11 112/177/11 110/163/11
f 73/4/12 72/3/12 85/173/12 86/178/12
f 18/31/13 17/30/13 137/170/13 139/179/13
f 5/18/14 4/17/14 111/172/14 113/180/14
f 70/1/15 69/81/15 87/181/15 83/165/15
f 44/56/16 43/55/16 140/182/16 138/175/16
f 57/69/17 56/68/17 114/183/17 112/177/17
f 74/5/18 73/4/18 86/178/18 88/184/18
f 19/32/19 18/31/19 139/179/19 141/185/19
f 6/19/20 5/18/20 113/180/20 115/186/20
f 69/81/21 68/80/21 89/187/21 87/181/21
f 43/55/22 42/54/22 142/188/22 140/182/22
f 56/68/23 55/67/23 116/189/23 114/183/23
f 75/6/24 74/5/24 88/184/24 90/190/24
f 42/54/25 41/53/25 143/191/25 142/188/25
f 7/20/26 6/19/26 115/186/26 117/192/26
f 68/80/27 67/79/27 91/193/27 89/187/27
f 20/33/28 19/32/28 141/185/28 144/194/28
f 55/67/29 54/66/29 118/195/29 116/189/29
f 76/7/30 75/6/30 90/190/30 92/196/30
f 41/53/31 40/52/31 145/197/31 143/191/31
f 8/21/32 7/20/32 117/192/32 119/198/32
f 67/79/33 66/78/33 93/199/33 91/193/33
f 21/34/34 20/33/34 144/194/34 146/200/34
f 54/66/35 53/65/35 120/201/35 118/195/35
f 77/8/36 76/7/36 92/196/36 94/202/36
f 40/52/37 39/51/37 147/203/37 145/197/37
f 9/22/38 8/21/38 119/198/38 121/204/38
f 66/78/39 65/77/39 95/205/39 93/199/39
f 22/35/40 21/34/40 146/200/40 148/206/40
f 53/65/41 52/64/41 122/207/41 120/201/41
f 78/9/42 77/8/42 94/202/42 96/208/42
f 39/51/43 38/50/43 149/209/43 147/203/43
f 10/23/44 9/22/44 121/204/44 123/210/44
f 65/77/45 64/76/45 97/211/45 95/205/45
f 23/36/46 22/35/46 148/206/46 150/212/46
f 52/64/47 51/63/47 124/213/47 122/207/47
f 79/10/48 78/9/48 96/208/48 98/214/48
f 38/50/49 37/49/49 151/215/49 149/209/49
f 11/24/50 10/23/50 123/210/50 125/216/50
f 64/76/51 63/75/51 99/217/51 97/211/51
f 24/37/52 23/36/52 150/212/52 152/218/52
f 51/63/53 50/62/53 126/219/53 124/213/53
f 80/11/54 79/10/54 98/214/54 100/220/54
f 25/38/55 24/37/55 152/218/55 153/221/55
f 12/25/56 11/24/56 125/216/56 127/222/56
f 63/75/57 62/74/57 101/223/57 99/217/57
f 37/49/58 36/48/58 154/224/58 151/215/58
f 50/62/59 49/61/59 128/225/59 126/219/59
f 81/12/60 80/11/60 100/220/60 102/226/60
f 26/39/61 25/38/61 153/221/61 155/227/61
f 13/26/62 12/25/62 127/222/62 129/228/62
f 62/74/63 61/73/63 103/229/63 101/223/63
f 36/48/64 35/47/64 156/230/64 154/224/64
f 14/27/65 13/26/65 129/228/65 130/231/65
f 82/13/66 81/12/66 102/226/66 104/232/66
f 35/47/67 34/46/67 157/233/67 156/230/67
f 49/61/68 48/60/68 131/234/68 128/225/68
f 61/73/69 60/72/69 105/235/69 103/229/69
f 27/40/70 26/39/70 155/227/70 158/174/70
f 15/28/71 14/27/71 130/231/71 132/236/71
f 1/14/72 82/13/72 104/232/72 106/237/72
f 34/46/73 33/45/73 159/238/73 157/233/73
f 48/60/74 47/59/74 133/239/74 131/234/74
f 60/72/75 59/71/75 107/164/75 105/235/75
f 33/45/76 32/44/76 160/240/76 159/238/76
f 16/29/77 15/28/77 132/236/77 134/169/77
f 2/15/78 1/14/78 106/237/78 108/241/78
f 32/44/79 31/43/79 161/242/79 160/240/79
f 47/59/80 46/58/80 135/243/80 133/239/80
f 3/16/81 2/15/81 108/241/81 109/171/81
f 31/43/82 30/42/82 162/168/82 161/242/82
f 46/58/83 45/57/83 136/176/83 135/243/83
