{
    "asset" : {
        "generator" : "Khronos glTF Blender I/O v1.6.16",
        "version" : "2.0"
    },
    "scene" : 0,
    "scenes" : [
        {
            "name" : "Scene",
            "nodes" : [
                0,
                1,
                2,
                3,
                4,
                5,
                6,
                7,
                10
            ]
        }
    ],
    "nodes" : [
        {
            "name" : "Light",
            "rotation" : [
                0.16907575726509094,
                0.7558803558349609,
                -0.27217137813568115,
                0.570947527885437
            ],
            "translation" : [
                4.076245307922363,
                5.903861999511719,
                -1.0054539442062378
            ]
        },
        {
            "name" : "Camera",
            "rotation" : [
                0.483536034822464,
                0.33687159419059753,
                -0.20870360732078552,
                0.7804827094078064
            ],
            "translation" : [
                7.358891487121582,
                4.958309173583984,
                6.925790786743164
            ]
        },
        {
            "mesh" : 0,
            "name" : "head"
        },
        {
            "mesh" : 1,
            "name" : "body"
        },
        {
            "mesh" : 2,
            "name" : "neck"
        },
        {
            "mesh" : 3,
            "name" : "arm_right"
        },
        {
            "mesh" : 4,
            "name" : "leg_left"
        },
        {
            "mesh" : 5,
            "name" : "leg_right"
        },
        {
            "name" : "Bone",
            "rotation" : [
                1,
                3.725290298461914e-09,
                0,
                0
            ],
            "translation" : [
                0.25,
                1.2000000476837158,
                0
            ]
        },
        {
            "mesh" : 6,
            "name" : "arm_left",
            "skin" : 0
        },
        {
            "children" : [
                9,
                8
            ],
            "name" : "bone_arm_left"
        }
    ],
    "animations" : [
        {
            "channels" : [
                {
                    "sampler" : 0,
                    "target" : {
                        "node" : 8,
                        "path" : "translation"
                    }
                },
                {
                    "sampler" : 1,
                    "target" : {
                        "node" : 8,
                        "path" : "rotation"
                    }
                },
                {
                    "sampler" : 2,
                    "target" : {
                        "node" : 8,
                        "path" : "scale"
                    }
                }
            ],
            "name" : "bone_arm_leftAction",
            "samplers" : [
                {
                    "input" : 28,
                    "interpolation" : "LINEAR",
                    "output" : 29
                },
                {
                    "input" : 28,
                    "interpolation" : "LINEAR",
                    "output" : 30
                },
                {
                    "input" : 28,
                    "interpolation" : "LINEAR",
                    "output" : 31
                }
            ]
        }
    ],
    "materials" : [
        {
            "doubleSided" : true,
            "name" : "Material.001",
            "pbrMetallicRoughness" : {
                "baseColorTexture" : {
                    "index" : 0
                },
                "metallicFactor" : 0,
                "roughnessFactor" : 0.5
            }
        },
        {
            "doubleSided" : true,
            "name" : "Material",
            "pbrMetallicRoughness" : {
                "baseColorFactor" : [
                    0.5490000247955322,
                    0.5559999942779541,
                    0.5559999942779541,
                    1
                ],
                "metallicFactor" : 0,
                "roughnessFactor" : 0.4000000059604645
            }
        }
    ],
    "meshes" : [
        {
            "name" : "head",
            "primitives" : [
                {
                    "attributes" : {
                        "POSITION" : 0,
                        "NORMAL" : 1,
                        "TEXCOORD_0" : 2
                    },
                    "indices" : 3,
                    "material" : 0
                }
            ]
        },
        {
            "name" : "body",
            "primitives" : [
                {
                    "attributes" : {
                        "POSITION" : 4,
                        "NORMAL" : 5,
                        "TEXCOORD_0" : 6
                    },
                    "indices" : 7,
                    "material" : 1
                }
            ]
        },
        {
            "name" : "neck",
            "primitives" : [
                {
                    "attributes" : {
                        "POSITION" : 8,
                        "NORMAL" : 9,
                        "TEXCOORD_0" : 10
                    },
                    "indices" : 11,
                    "material" : 1
                }
            ]
        },
        {
            "name" : "arm_right",
            "primitives" : [
                {
                    "attributes" : {
                        "POSITION" : 12,
                        "NORMAL" : 13,
                        "TEXCOORD_0" : 14
                    },
                    "indices" : 11,
                    "material" : 1
                }
            ]
        },
        {
            "name" : "leg_left",
            "primitives" : [
                {
                    "attributes" : {
                        "POSITION" : 15,
                        "NORMAL" : 16,
                        "TEXCOORD_0" : 17
                    },
                    "indices" : 11,
                    "material" : 1
                }
            ]
        },
        {
            "name" : "leg_right",
            "primitives" : [
                {
                    "attributes" : {
                        "POSITION" : 18,
                        "NORMAL" : 19,
                        "TEXCOORD_0" : 20
                    },
                    "indices" : 11,
                    "material" : 1
                }
            ]
        },
        {
            "name" : "arm_left",
            "primitives" : [
                {
                    "attributes" : {
                        "POSITION" : 21,
                        "NORMAL" : 22,
                        "TEXCOORD_0" : 23,
                        "JOINTS_0" : 24,
                        "WEIGHTS_0" : 25
                    },
                    "indices" : 26,
                    "material" : 1
                }
            ]
        }
    ],
    "textures" : [
        {
            "sampler" : 0,
            "source" : 0
        }
    ],
    "images" : [
        {
            "bufferView" : 4,
            "mimeType" : "image/png",
            "name" : "roboface2"
        }
    ],
    "skins" : [
        {
            "inverseBindMatrices" : 27,
            "joints" : [
                8
            ],
            "name" : "bone_arm_left"
        }
    ],
    "accessors" : [
        {
            "bufferView" : 0,
            "componentType" : 5126,
            "count" : 24,
            "max" : [
                0.09999999403953552,
                1.4999998807907104,
                0.09999999403953552
            ],
            "min" : [
                -0.09999999403953552,
                1.2999998331069946,
                -0.09999999403953552
            ],
            "type" : "VEC3"
        },
        {
            "bufferView" : 1,
            "componentType" : 5126,
            "count" : 24,
            "type" : "VEC3"
        },
        {
            "bufferView" : 2,
            "componentType" : 5126,
            "count" : 24,
            "type" : "VEC2"
        },
        {
            "bufferView" : 3,
            "componentType" : 5123,
            "count" : 36,
            "type" : "SCALAR"
        },
        {
            "bufferView" : 5,
            "componentType" : 5126,
            "count" : 56,
            "max" : [
                0.19999998807907104,
                1.2000000476837158,
                0.09999999403953552
            ],
            "min" : [
                -0.19999998807907104,
                0.699999988079071,
                -0.09999999403953552
            ],
            "type" : "VEC3"
        },
        {
            "bufferView" : 6,
            "componentType" : 5126,
            "count" : 56,
            "type" : "VEC3"
        },
        {
            "bufferView" : 7,
            "componentType" : 5126,
            "count" : 56,
            "type" : "VEC2"
        },
        {
            "bufferView" : 8,
            "componentType" : 5123,
            "count" : 108,
            "type" : "SCALAR"
        },
        {
            "bufferView" : 9,
            "componentType" : 5126,
            "count" : 192,
            "max" : [
                0.05000000074505806,
                1.2999999523162842,
                0.05000000074505806
            ],
            "min" : [
                -0.05000000074505806,
                1.2000000476837158,
                -0.05000000074505806
            ],
            "type" : "VEC3"
        },
        {
            "bufferView" : 10,
            "componentType" : 5126,
            "count" : 192,
            "type" : "VEC3"
        },
        {
            "bufferView" : 11,
            "componentType" : 5126,
            "count" : 192,
            "type" : "VEC2"
        },
        {
            "bufferView" : 12,
            "componentType" : 5123,
            "count" : 372,
            "type" : "SCALAR"
        },
        {
            "bufferView" : 13,
            "componentType" : 5126,
            "count" : 192,
            "max" : [
                -0.20000000298023224,
                1.2000000476837158,
                0.05000000074505806
            ],
            "min" : [
                -0.30000001192092896,
                0.5,
                -0.05000000074505806
            ],
            "type" : "VEC3"
        },
        {
            "bufferView" : 14,
            "componentType" : 5126,
            "count" : 192,
            "type" : "VEC3"
        },
        {
            "bufferView" : 15,
            "componentType" : 5126,
            "count" : 192,
            "type" : "VEC2"
        },
        {
            "bufferView" : 16,
            "componentType" : 5126,
            "count" : 192,
            "max" : [
                0.20000000298023224,
                0.800000011920929,
                0.05000000074505806
            ],
            "min" : [
                0.10000000894069672,
                0,
                -0.05000000074505806
            ],
            "type" : "VEC3"
        },
        {
            "bufferView" : 17,
            "componentType" : 5126,
            "count" : 192,
            "type" : "VEC3"
        },
        {
            "bufferView" : 18,
            "componentType" : 5126,
            "count" : 192,
            "type" : "VEC2"
        },
        {
            "bufferView" : 19,
            "componentType" : 5126,
            "count" : 192,
            "max" : [
                -0.10000000894069672,
                0.800000011920929,
                0.05000000074505806
            ],
            "min" : [
                -0.20000000298023224,
                2.9802322387695312e-08,
                -0.05000000074505806
            ],
            "type" : "VEC3"
        },
        {
            "bufferView" : 20,
            "componentType" : 5126,
            "count" : 192,
            "type" : "VEC3"
        },
        {
            "bufferView" : 21,
            "componentType" : 5126,
            "count" : 192,
            "type" : "VEC2"
        },
        {
            "bufferView" : 22,
            "componentType" : 5126,
            "count" : 192,
            "max" : [
                0.29999998211860657,
                1.2000000476837158,
                0.05000000074505806
            ],
            "min" : [
                0.20000000298023224,
                0.5000000596046448,
                -0.05000000074505806
            ],
            "type" : "VEC3"
        },
        {
            "bufferView" : 23,
            "componentType" : 5126,
            "count" : 192,
            "type" : "VEC3"
        },
        {
            "bufferView" : 24,
            "componentType" : 5126,
            "count" : 192,
            "type" : "VEC2"
        },
        {
            "bufferView" : 25,
            "componentType" : 5121,
            "count" : 192,
            "type" : "VEC4"
        },
        {
            "bufferView" : 26,
            "componentType" : 5126,
            "count" : 192,
            "type" : "VEC4"
        },
        {
            "bufferView" : 27,
            "componentType" : 5123,
            "count" : 372,
            "type" : "SCALAR"
        },
        {
            "bufferView" : 28,
            "componentType" : 5126,
            "count" : 1,
            "type" : "MAT4"
        },
        {
            "bufferView" : 29,
            "componentType" : 5126,
            "count" : 251,
            "max" : [
                10.416666666666666
            ],
            "min" : [
                0
            ],
            "type" : "SCALAR"
        },
        {
            "bufferView" : 30,
            "componentType" : 5126,
            "count" : 251,
            "type" : "VEC3"
        },
        {
            "bufferView" : 31,
            "componentType" : 5126,
            "count" : 251,
            "type" : "VEC4"
        },
        {
            "bufferView" : 32,
            "componentType" : 5126,
            "count" : 251,
            "type" : "VEC3"
        }
    ],
    "bufferViews" : [
        {
            "buffer" : 0,
            "byteLength" : 288,
            "byteOffset" : 0
        },
        {
            "buffer" : 0,
            "byteLength" : 288,
            "byteOffset" : 288
        },
        {
            "buffer" : 0,
            "byteLength" : 192,
            "byteOffset" : 576
        },
        {
            "buffer" : 0,
            "byteLength" : 72,
            "byteOffset" : 768
        },
        {
            "buffer" : 0,
            "byteLength" : 22494,
            "byteOffset" : 840
        },
        {
            "buffer" : 0,
            "byteLength" : 672,
            "byteOffset" : 23336
        },
        {
            "buffer" : 0,
            "byteLength" : 672,
            "byteOffset" : 24008
        },
        {
            "buffer" : 0,
            "byteLength" : 448,
            "byteOffset" : 24680
        },
        {
            "buffer" : 0,
            "byteLength" : 216,
            "byteOffset" : 25128
        },
        {
            "buffer" : 0,
            "byteLength" : 2304,
            "byteOffset" : 25344
        },
        {
            "buffer" : 0,
            "byteLength" : 2304,
            "byteOffset" : 27648
        },
        {
            "buffer" : 0,
            "byteLength" : 1536,
            "byteOffset" : 29952
        },
        {
            "buffer" : 0,
            "byteLength" : 744,
            "byteOffset" : 31488
        },
        {
            "buffer" : 0,
            "byteLength" : 2304,
            "byteOffset" : 32232
        },
        {
            "buffer" : 0,
            "byteLength" : 2304,
            "byteOffset" : 34536
        },
        {
            "buffer" : 0,
            "byteLength" : 1536,
            "byteOffset" : 36840
        },
        {
            "buffer" : 0,
            "byteLength" : 2304,
            "byteOffset" : 38376
        },
        {
            "buffer" : 0,
            "byteLength" : 2304,
            "byteOffset" : 40680
        },
        {
            "buffer" : 0,
            "byteLength" : 1536,
            "byteOffset" : 42984
        },
        {
            "buffer" : 0,
            "byteLength" : 2304,
            "byteOffset" : 44520
        },
        {
            "buffer" : 0,
            "byteLength" : 2304,
            "byteOffset" : 46824
        },
        {
            "buffer" : 0,
            "byteLength" : 1536,
            "byteOffset" : 49128
        },
        {
            "buffer" : 0,
            "byteLength" : 2304,
            "byteOffset" : 50664
        },
        {
            "buffer" : 0,
            "byteLength" : 2304,
            "byteOffset" : 52968
        },
        {
            "buffer" : 0,
            "byteLength" : 1536,
            "byteOffset" : 55272
        },
        {
            "buffer" : 0,
            "byteLength" : 768,
            "byteOffset" : 56808
        },
        {
            "buffer" : 0,
            "byteLength" : 3072,
            "byteOffset" : 57576
        },
        {
            "buffer" : 0,
            "byteLength" : 744,
            "byteOffset" : 60648
        },
        {
            "buffer" : 0,
            "byteLength" : 64,
            "byteOffset" : 61392
        },
        {
            "buffer" : 0,
            "byteLength" : 1004,
            "byteOffset" : 61456
        },
        {
            "buffer" : 0,
            "byteLength" : 3012,
            "byteOffset" : 62460
        },
        {
            "buffer" : 0,
            "byteLength" : 4016,
            "byteOffset" : 65472
        },
        {
            "buffer" : 0,
            "byteLength" : 3012,
            "byteOffset" : 69488
        }
    ],
    "samplers" : [
        {
            "magFilter" : 9729,
            "minFilter" : 9987
        }
    ],
    "buffers" : [
        {
            "byteLength" : 72500,
            "uri" : "data:application/octet-stream;base64,"
        }
    ]
}
